<svg xmlns:dc="http://purl.org/dc/elements/1.1/" xmlns:cc="http://creativecommons.org/ns#" xmlns:rdf="http://www.w3.org/1999/02/22-rdf-syntax-ns#" xmlns:svg="http://www.w3.org/2000/svg" xmlns="http://www.w3.org/2000/svg" xmlns:sodipodi="http://sodipodi.sourceforge.net/DTD/sodipodi-0.dtd" xmlns:inkscape="http://www.inkscape.org/namespaces/inkscape" version="1.1" x="0px" y="0px" viewBox="0 0 100 125"><g transform="translate(0,-952.36218)"><path d="m 73.999975,955.36242 c -12.126579,0 -22,9.8734 -22,22 0,12.1266 9.87342,22.00002 22,22.00002 12.126579,0 22,-9.87342 22,-22.00002 0,-12.1266 -9.873421,-22 -22,-22 z m -2,4.125 0,0.9688 c -7.75736,0.9254 -13.952249,7.1148 -14.875,14.875 l -1,0 c 0.93155,-8.3448 7.52636,-14.9247 15.875,-15.8438 z m 4,0 c 8.348639,0.9191 14.943449,7.499 15.875,15.8438 l -1,0 c -0.922751,-7.7602 -7.11764,-13.9496 -14.875,-14.875 z m -27.03125,1.8748 c -13.22513,0.654 -26.49187,1.8986 -37.468699,4.0622 -4.7609005,1.1902 -7.5000005,5.2811 -7.5000005,10 l 0,65.93748 c 7.5e-4,0.9315 0.73858,1.8085 1.65625,1.9688 24.1177605,4.0197 49.4854605,6.0312 74.2187485,6.0312 2.38574,10e-5 4.50583,-0.6028 6,-2.0625 2.124951,-1.9682 2.10574,-4.0921 2.093801,-6.1563 -2.31717,-16.2565 -3.286411,-29.7112 -2.90625,-43.62496 -1.255151,0.6932 -2.58569,1.2362 -3.96875,1.6876 -0.264281,13.46606 0.698929,26.65336 2.90625,42.21866 2.9e-5,1.6301 -0.36919,2.4753 -0.90625,3 -0.53706,0.5247 -1.47949,0.9375 -3.21875,0.9375 -23.955199,0 -48.484089,-1.9497 -71.8749995,-5.75 l 0,-64.18748 c 0,-3.4061 1.2609,-5.3152 4.5000005,-6.125 12.37921,-2.4638 24.45917,-3.6905 36.562499,-3.9375 1.77896,-0.036 3.56325,-0.038 5.34375,-0.031 0.8865,-1.4402 1.922331,-2.7605 3.09375,-3.9688 -2.842359,-0.033 -5.80852,-0.053 -8.53135,10e-5 z m 25.03125,2.969 c 7.20333,0 13,5.8278 13,13.0312 0,7.2033 -5.79667,12.9688 -13,12.9688 -7.20334,0 -13,-5.7655 -13,-12.9688 0,-7.2034 5.79666,-13.0312 13,-13.0312 z m -6.4375,4.125 c -1.04717,10e-5 -1.9999,0.9528 -2,2 l 0,8 c -0.0149,1.0566 0.943269,2.0285 2,2.0285 1.056729,0 2.01494,-0.9719 2,-2.0285 l 0,-3.1876 9.3125,9.3438 c 0.74447,0.7446 2.09939,0.7447 2.84394,10e-5 0.74454,-0.7445 0.74445,-2.0994 -1.9e-4,-2.8439 l -9.34375,-9.3124 3.1875,0 c 1.056629,0.015 2.02848,-0.9433 2.02848,-2 0,-1.0567 -0.971851,-2.0149 -2.02848,-2 z m -46.5625,3.875 c -5.101959,0 -9,4 -9,10 0,5 3.590401,8.7615 6.42868,12.1551 0.733671,0.8648 1.04007,1.8633 2.59139,1.8292 1.44868,0.034 1.83425,-1.2765 2.63618,-2.0469 2.57923,-3.5611 6.34375,-6.9374 6.34375,-11.9374 0,-6 -3.89804,-10 -9,-10 z m 0,4 c 3,0 5.00005,2.5241 5,6 0,3 -2.84964,6.1309 -4.96875,8.8124 -1.67987,-2.4941 -5.03125,-5.8124 -5.03125,-8.8124 -4e-5,-3.4759 2,-6 5,-6 z m 35.125,3 1,0 c 0.91002,7.7718 7.107351,13.951 14.875,14.875 l 0,1.0312 c -8.36839,-0.9211 -14.968,-7.5335 -15.875,-15.9062 z m 34.75,0 1,0 c -0.907001,8.3727 -7.50661,14.9851 -15.875,15.9062 l 0,-1.0312 c 7.76764,-0.924 13.96498,-7.1032 14.875,-14.875 z m -38.375,11.0932 c -1.06667,0.2858 -1.69206,1.3708 -1.40625,2.4375 0.28581,1.0667 1.37083,1.7233 2.4375,1.4375 1.06667,-0.2858 1.72331,-1.4021 1.4375,-2.4687 -0.5,-1.4811 -1.363569,-1.4913 -2.46875,-1.4063 z m -4.5625,2.25 c -1.06667,0.2858 -1.69206,1.4021 -1.40625,2.4687 0.28581,1.0667 1.37083,1.6921 2.4375,1.4063 1.06667,-0.2858 1.69206,-1.3708 1.40625,-2.4375 -0.68576,-1.1956 -0.90625,-1.7623 -2.4375,-1.4375 z m -4.1875,2.2192 c -1.19557,0.344 -2.04597,1.5063 -1.8125,2.50002 0.28581,1.0667 1.40208,1.6921 2.46875,1.4063 1.06667,-0.2858 1.69206,-1.3708 1.40625,-2.43752 -0.25009,-0.9333 -1.13415,-1.5245 -2.0625,-1.4688 z m -4.5625,2.25002 c -1.71875,0.206 -2.03462,1.5588 -1.8125,2.5 0.28581,1.06666 1.40208,1.72336 2.46875,1.43756 1.06667,-0.2859 1.69206,-1.40206 1.40625,-2.46876 -0.25009,-0.9333 -1.139089,-1.5795 -2.0625,-1.4688 z m -17.1875,1.2188 c -1.10457,0 -2,0.8954 -2,1.99996 0,1.1046 0.89543,2 2,2 1.10457,0 2,-0.8954 2,-2 0,-1.10456 -0.89543,-1.99996 -2,-1.99996 z m 12.8125,0.4688 c -1.2459,0.242 -2.03577,1.58406 -1.8125,2.53116 0.28581,1.0667 1.37083,1.6921 2.4375,1.4062 1.06667,-0.2858 1.72331,-1.402 1.4375,-2.4687 -0.25009,-0.93326 -1.13415,-1.52446 -2.0625,-1.46866 z m -4.8125,2.53116 c -1.104569,0 -2,0.8954 -2,2 0,1.1046 0.895431,2 2,2 1.10457,0 2,-0.8954 2,-2 0,-1.1046 -0.89543,-2 -2,-2 z m 39,0 c -1.10457,0 -2,0.8954 -2,2 0,1.1046 0.89543,2 2,2 1.10457,0 2,-0.8954 2,-2 0,-1.1046 -0.89543,-2 -2,-2 z m -44,1 c -1.10457,0 -2,0.8954 -2,2 0,1.1046 0.89543,2 2,2 1.10457,0 2,-0.8954 2,-2 0,-1.1046 -0.89543,-2 -2,-2 z m 40,2 c -1.104569,0 -2,0.8954 -2,2 0,1.1046 0.895431,2 2,2 1.10457,0 2,-0.8954 2,-2 0,-1.1046 -0.89543,-2 -2,-2 z m -5,3 c -1.104569,0 -2,0.8954 -2,2 0,1.1046 0.895431,2 2,2 1.10457,0 2,-0.8954 2,-2 0,-1.1046 -0.89543,-2 -2,-2 z m -5,3 c -1.104569,0 -2,0.8954 -2,2 0,1.1046 0.895431,2 2,2 1.10457,0 2,-0.8954 2,-2 0,-1.1046 -0.89543,-2 -2,-2 z m -5,2 c -1.104569,0 -2,0.8954 -2,2 0,1.1046 0.895431,2 2,2 1.10457,0 2,-0.8954 2,-2 0,-1.1046 -0.89543,-2 -2,-2 z m -5,2 c -1.104569,0 -2,0.8954 -2,2 0,1.1046 0.895431,2 2,2 1.10457,0 2,-0.8954 2,-2 0,-1.1046 -0.89543,-2 -2,-2 z m -5,2 c -1.104569,0 -2,0.8954 -2,2 0,1.1046 0.895431,2 2,2 1.10457,0 2,-0.8954 2,-2 0,-1.1046 -0.89543,-2 -2,-2 z m 31.5,0.5312 c -3.36023,1.676 -6.113871,4.0425 -8.5,6.6876 -2.59092,-1.8892 -5.42312,-3.295 -8.4375,-4.1563 l -1.125,3.8437 c 2.499611,0.7142 4.85177,1.8588 7.03125,3.4063 -2.22049,2.879 -4.167429,5.8609 -6.09375,8.5 l 3.25,2.3437 c 1.977771,-2.7095 3.89202,-5.5595 5.9375,-8.2187 2.148409,2.138 4.063639,4.7523 5.65625,7.9375 l 3.5625,-1.7812 c -1.826491,-3.653 -4.077491,-6.7402 -6.65625,-9.25 2.117979,-2.3508 4.438549,-4.3946 7.15625,-5.75 z m -36.5,1.4688 c -1.104569,0 -2,0.8954 -2,2 0,1.1046 0.895431,2 2,2 1.10457,0 2,-0.8954 2,-2 0,-1.1046 -0.89543,-2 -2,-2 z m -5,2 c -1.104569,0 -2,0.8954 -2,2 0,1.1046 0.895431,2 2,2 1.10457,0 2,-0.8954 2,-2 0,-1.1046 -0.89543,-2 -2,-2 z m -5,3 c -1.10457,0 -2,0.8954 -2,2 0,1.1046 0.89543,2 2,2 1.10457,0 2,-0.8954 2,-2 0,-1.1046 -0.89543,-2 -2,-2 z m 32,2 c -1.104569,0 -2,0.8954 -2,2 0,1.1046 0.895431,2 2,2 1.10457,0 2,-0.8954 2,-2 0,-1.1046 -0.89543,-2 -2,-2 z m -5,2 c -1.104569,0 -2,0.8954 -2,2 0,1.1046 0.895431,2 2,2 1.10457,0 2,-0.8954 2,-2 0,-1.1046 -0.89543,-2 -2,-2 z m -29,1 c -1.10457,0 -2,0.8954 -2,2 0,1.1046 0.89543,2 2,2 1.10457,0 2,-0.8954 2,-2 0,-1.1046 -0.89543,-2 -2,-2 z m 24,0 c -1.104569,0 -2,0.8954 -2,2 0,1.1046 0.895431,2 2,2 1.10457,0 2,-0.8954 2,-2 0,-1.1046 -0.89543,-2 -2,-2 z m -5,1 c -1.104569,0 -2,0.8954 -2,2 0,1.1046 0.895431,2 2,2 1.10457,0 2,-0.8954 2,-2 0,-1.1046 -0.89543,-2 -2,-2 z m -5,1 c -1.104569,0 -2,0.8954 -2,2 0,1.1046 0.895431,2 2,2 1.10457,0 2,-0.8954 2,-2 0,-1.1046 -0.89543,-2 -2,-2 z m -10,1 c -1.10457,0 -2,0.8954 -2,2 0,1.1046 0.89543,2 2,2 1.10457,0 2,-0.8954 2,-2 0,-1.1046 -0.89543,-2 -2,-2 z m 5,0 c -1.104569,0 -2,0.8954 -2,2 0,1.1046 0.895431,2 2,2 1.10457,0 2,-0.8954 2,-2 0,-1.1046 -0.89543,-2 -2,-2 z" style="text-indent:0;text-transform:none;direction:ltr;block-progression:tb;baseline-shift:baseline;color:#000000;enable-background:accumulate;" fill="#000000" fill-opacity="1" stroke="none" marker="none" visibility="visible" display="inline" overflow="visible"/></g><text x="0" y="115" fill="#000000" font-size="5px" font-weight="bold" font-family="'Helvetica Neue', Helvetica, Arial-Unicode, Arial, Sans-serif">Created by sandra</text><text x="0" y="120" fill="#000000" font-size="5px" font-weight="bold" font-family="'Helvetica Neue', Helvetica, Arial-Unicode, Arial, Sans-serif">from the Noun Project</text></svg>