<svg xmlns="http://www.w3.org/2000/svg" xmlns:xlink="http://www.w3.org/1999/xlink" version="1.1" x="0px" y="0px" viewBox="0 0 100 125" enable-background="new 0 0 100 100" xml:space="preserve"><g><path d="M93,26c0-3.309-2.691-6-6-6s-6,2.691-6,6v0.999H19V26c0-3.309-2.692-6-6.001-6s-6,2.691-6,6v10v34.066V71   c0,4.963,4.037,9,9,9h68c4.963,0,9-4.037,9-9v-0.928c0-0.002,0-0.004,0-0.006V26z M83,26c0-2.206,1.795-4,4-4s4,1.794,4,4v41.635   c-1.156-0.807-2.545-1.255-4-1.255s-2.844,0.448-4,1.255V26z M81,49.474c-1.014,0.791-2.223,1.766-3.293,2.836   c-0.641,0.641-1.514,1.023-1.969,1.224c-1.156,0.506-1.217,1.31-1.125,1.797c0.008,0.309-0.07,0.91-0.191,1.361   c-0.006-0.018-0.014-0.035-0.02-0.052c-0.18-0.465-0.424-1.101-0.844-1.997c-0.418-0.89-0.998-1.341-1.727-1.341   c-0.535,0-1,0.253-1.469,0.535c-0.867,0.523-1.215,1.382-1.469,2.009c-0.035,0.084-0.076,0.187-0.119,0.282   c-0.094-0.237-0.174-0.615-0.219-0.827c-0.078-0.369-0.152-0.718-0.309-1.013c-0.398-0.748-0.838-1.383-2.174-1.563   c-0.043-0.006-0.178-0.015-0.223-0.015c-0.979,0-1.813,0.817-2.619,1.607c-0.324,0.318-0.662,0.647-0.898,0.804   c-0.277,0.183-0.471,0.33-0.619,0.445c-0.043-0.067-0.086-0.14-0.125-0.202c-0.367-0.592-0.869-1.402-1.795-1.752   c-0.949-0.357-1.965-0.092-2.547,0.659c-0.482,0.621-0.629,1.484-0.4,2.367c0.389,1.515,1.096,2.916,2.043,4.054   c0.201,0.242,0.641,1.424-2.162,6.467l-0.227,0.411c-0.418,0.758-0.891,1.616-1.338,1.94l-0.229,0.169   c-0.113,0.085-0.26,0.196-0.35,0.247c-0.037-0.022-0.098-0.065-0.184-0.142c-0.563-0.502-1.148-2.456-1.234-3.466   c-0.008-0.093,0.066-0.199,0.244-0.417c0.203-0.247,0.545-0.662,0.443-1.235c-0.037-0.204-0.166-0.588-0.629-0.859   c-0.262-0.158-0.676-0.882-0.652-1.135c0.117-0.406,0.475-1.641-0.191-2.526c-0.246-0.324-0.713-0.712-1.554-0.712   c-0.092,0-0.188,0.005-0.289,0.015c-0.158,0.015-0.473,0.086-0.822,0.171c-0.264,0.065-0.554,0.138-0.781,0.176   c-0.14,0.023-0.282,0.053-0.425,0.083c-0.212,0.044-0.43,0.089-0.625,0.093c-0.364-0.223-1.278-1.084-1.419-1.304   c-0.148-0.431-0.139-1.063,0.021-1.501c0.074-0.202,0.333-0.455,0.583-0.7c0.243-0.237,0.493-0.483,0.699-0.784   c0.214-0.313,0.351-0.617,0.461-0.861c0.068-0.152,0.14-0.309,0.2-0.396c0.018,0,0.035,0.001,0.053,0.001   c0.221,0.013,0.467-0.001,0.823-0.078c0.377-0.082,0.729-0.262,1.069-0.437c0.133-0.067,0.322-0.165,0.467-0.227l0.02,0.119   c0.199,1.086,1.318,1.969,2.494,1.969c0.363,0,0.707-0.081,1.025-0.24c0.439-0.222,0.732-0.379,0.967-0.505   c0.293-0.158,0.484-0.262,0.803-0.396c1.826-0.766,2.678-2.42,2.273-4.425c-0.479-2.387-2.869-5.269-5.117-5.269   c-0.664,0-1.258,0.249-1.721,0.72c-0.9,0.917-0.088,1.99,0.381,2.589c-0.289-0.25-0.557-0.505-0.699-0.64   c-0.58-0.55-0.845-0.801-1.376-0.801c-0.002,0-0.004,0-0.006,0c-0.906,0.051-1.564,0.81-2.146,1.479   c-0.193,0.222-0.5,0.575-0.68,0.707c-0.092-0.055-0.199-0.209-0.215-0.263l-0.002-0.137c-0.002-0.053-0.007-0.104-0.016-0.11   c0.004-0.006,0.092-0.141,0.553-0.407c1.105-0.637,0.633-1.88,0.454-2.348c-0.013-0.035-0.028-0.074-0.044-0.114   c0.281-0.038,0.654-0.063,0.937-0.08c0.612-0.039,1.245-0.079,1.801-0.224c2.133-0.556,3.071-1.628,3.756-2.41   c0.172-0.195,0.334-0.383,0.512-0.55c0.629-0.592,0.814-1.423,0.498-2.223c-0.42-1.062-1.738-2.028-2.764-2.028   c-0.029,0-0.109,0.003-0.139,0.006c-2.039,0.178-2.601,1.699-2.904,2.517c-0.024,0.064-0.051,0.137-0.078,0.207   c-0.117-0.247-0.069-0.701-0.066-0.726c0.148-1.337,1.355-3.223,3.263-3.071c3.553,0.248,5.326,1.276,6.5,1.956   c0.711,0.412,1.273,0.737,1.943,0.737c0.168,0,0.336-0.022,0.496-0.065c1.414-0.379,6.041-1.924,7.725-6.217   c0.725,0.081,2.096,0.554,3.217,0.94c1.424,0.491,2.654,0.915,3.553,0.957c0.578,0,1.496-0.301,3.355-0.927   c0.498-0.168,1.045-0.349,1.604-0.53V49.474z M33.03,41.258c0.336,0.283,0.684,0.577,0.759,0.815   c0.08,0.25,0.104,0.413,0.109,0.511c-0.032,0.002-0.077,0-0.124,0.003c-0.293-0.011-0.794-0.373-1.195-0.664   c-0.529-0.382-1.076-0.777-1.705-0.886c-2.77-0.481-4.176,3.101-4.322,3.768c-0.256,1.185,0.28,2.428,1.221,2.83   c0.209,0.09,0.438,0.136,0.682,0.136c0.751,0,1.497-0.424,2.219-0.835c0.309-0.176,0.66-0.376,0.934-0.441   c0.301,0,0.848,0.314,1.311,0.917c0.387,0.503,0.497,0.911,0.507,1.086c-0.126,0.016-0.325,0.017-0.468,0.017   c-0.531,0.003-1.258,0.006-1.883,0.447c-0.653,0.463-0.947,1.092-1.184,1.597c-0.149,0.321-0.279,0.598-0.449,0.726   c-0.827,0.615-1.343,0.774-1.798,0.914c-0.532,0.165-1.137,0.352-1.72,1.107c-0.633,0.818-0.574,1.562-0.414,2.041   c0.598,1.791,3.508,2.725,6.965,3.676c0.238,0.065,0.459,0.126,0.659,0.183c0,0.004,0.001,0.008,0.001,0.012   c0.028,0.584,0.071,1.467,0.802,1.908c0.419,0.254,0.966,0.35,1.599,0.46c0.458,0.081,1.41,0.248,1.57,0.451   c0.289,0.648-1.996,3.295-2.746,4.164c-0.619,0.717-1.152,1.335-1.455,1.816c-0.807,1.289-1.104,3.173-1.254,4.512   c-0.215-0.366-0.391-0.769-0.414-1.052c-0.046-0.559,0.039-1.545,0.131-2.589c0.142-1.634,0.289-3.324,0.053-4.457   c-0.284-1.366-1.151-1.968-1.725-2.366c-0.254-0.176-0.472-0.327-0.511-0.447c-0.086-0.265-0.058-0.491-0.001-0.869   c0.072-0.478,0.172-1.133-0.17-1.865c-0.467-1.001-1.539-1.448-2.673-1.92c-1.919-0.8-4.095-1.707-5.017-5.224   c-0.273-1.04-1.311-1.614-2.322-2.165V38.847c0.185-0.268,0.367-0.537,0.566-0.796c0.145,0.122,0.314,0.32,0.555,0.613   c0.433,0.524,0.971,1.178,1.832,1.622c0.297,0.153,0.613,0.231,0.939,0.231c1.244,0,2.225-1.101,3.174-2.165   c0.521-0.584,1.111-1.247,1.561-1.473c1.047-0.527,2.324-0.799,3.561-1.062c0.494-0.104,0.971-0.206,1.406-0.318   c0.412-0.105,0.822-0.222,1.223-0.334c0.801-0.226,1.623-0.458,2.236-0.521c-0.334,0.201-0.734,0.418-1.05,0.59   c-1.683,0.917-3.424,1.864-3.505,3.303C31.42,39.897,32.35,40.684,33.03,41.258z M9,26c0-2.206,1.794-4,4-4S17,23.794,17,26v41.635   C15.844,66.828,14.454,66.38,13,66.38s-2.844,0.448-4,1.255V26z M84,78H16c-3.86,0-7-3.141-7-7v-0.602   c0.942-1.265,2.413-2.019,4-2.019c1.68,0,3.237,0.837,4.167,2.239c0.189,0.284,0.504,0.447,0.834,0.447   c0.096,0,0.193-0.014,0.288-0.043C18.711,70.896,19,70.508,19,70.066V51.892c0.195,0.134,0.349,0.26,0.387,0.354   c1.174,4.476,4.188,5.731,6.183,6.563c0.733,0.306,1.49,0.621,1.63,0.92c0.08,0.17,0.065,0.324,0.006,0.72   c-0.068,0.447-0.16,1.06,0.075,1.786c0.247,0.761,0.815,1.156,1.272,1.473c0.516,0.358,0.791,0.572,0.907,1.132   c0.176,0.844,0.036,2.455-0.088,3.876c-0.099,1.131-0.19,2.199-0.131,2.927c0.105,1.264,1.495,3.739,2.926,3.739   c0.454,0,0.86-0.225,1.117-0.618c0.181-0.276,0.208-0.559,0.28-1.313c0.11-1.127,0.314-3.225,1.033-4.371   c0.221-0.352,0.732-0.944,1.273-1.571c1.816-2.104,3.873-4.486,3.055-6.296c-0.522-1.154-1.922-1.399-3.047-1.597   c-0.222-0.039-0.523-0.092-0.726-0.143c-0.012-0.114-0.019-0.254-0.023-0.354c-0.026-0.528-0.069-1.412-0.907-1.677   c-0.316-0.1-0.736-0.216-1.219-0.349c-4.514-1.242-5.537-1.984-5.602-2.385c0,0,0.008-0.059,0.102-0.181   c0.197-0.255,0.299-0.286,0.729-0.419c0.548-0.169,1.299-0.4,2.401-1.222c0.575-0.428,0.848-1.013,1.067-1.482   c0.189-0.405,0.316-0.662,0.525-0.81c0.109-0.078,0.473-0.079,0.737-0.081c0.647-0.003,1.851-0.008,2.321-1.223   c0.31-0.8,0.088-1.842-0.609-2.859c-0.643-0.937-1.785-1.938-3.07-1.938c-0.227,0-0.449,0.032-0.662,0.095   c-0.4,0.119-0.818,0.356-1.262,0.608c-0.305,0.174-0.842,0.479-1.123,0.556c-0.051-0.105-0.1-0.304-0.053-0.522   c0.093-0.397,0.957-2.406,2.027-2.223c0.172,0.03,0.594,0.335,0.873,0.536c0.652,0.473,1.394,1.008,2.293,1.041   c0.012,0.001,0.119,0.003,0.131,0.003c0.951,0,1.453-0.415,1.707-0.763c0.42-0.574,0.473-1.367,0.157-2.358   c-0.25-0.787-0.847-1.292-1.374-1.737c-0.588-0.497-0.844-0.749-0.832-1.041c0.152-0.434,1.719-1.286,2.471-1.696   c1.32-0.719,2.146-1.191,2.49-1.845c0.346-0.659,0.379-1.235,0.1-1.714c-0.441-0.756-1.342-0.782-2.16-0.806   c-0.01,0-0.091-0.001-0.101-0.001c-0.836,0-1.894,0.298-3.015,0.613c-0.385,0.109-0.781,0.221-1.178,0.322   c-0.41,0.105-0.857,0.2-1.324,0.3c-1.297,0.275-2.766,0.587-4.043,1.23c-0.79,0.397-1.484,1.176-2.155,1.929   c-0.466,0.522-1.337,1.533-1.704,1.487c-0.495-0.256-0.84-0.674-1.203-1.116c-0.547-0.664-1.227-1.49-2.447-1.504   c-0.072,0-0.146,0.032-0.219,0.049v-6.938h62v2.786c-0.787,0.246-1.555,0.502-2.242,0.733c-1.068,0.359-2.396,0.807-2.699,0.822   c-0.533-0.025-1.801-0.463-2.918-0.848c-1.584-0.546-3.078-1.063-4.061-1.063c-1.113,0-1.457,0.672-1.553,0.96   c-1.254,3.76-5.633,5.106-6.475,5.335c-0.145-0.005-0.586-0.262-0.941-0.468c-1.252-0.726-3.35-1.94-7.363-2.222   c-3-0.206-5.123,2.418-5.392,4.846c-0.174,1.57,0.524,2.767,1.779,3.049c0.147,0.033,0.293,0.05,0.432,0.05   c1.18,0,1.566-1.041,1.796-1.663c0.316-0.854,0.49-1.157,1.141-1.22c0.311,0.048,0.92,0.57,0.922,0.796   c-0.223,0.21-0.43,0.443-0.645,0.689c-0.627,0.716-1.219,1.392-2.757,1.792c-0.369,0.097-0.904,0.131-1.422,0.163   c-1.203,0.076-2.34,0.148-2.771,1.078c-0.307,0.665-0.052,1.335,0.135,1.824c0.015,0.039,0.032,0.085,0.05,0.132   c-0.986,0.666-1.188,1.303-1.17,2.158c0,0.931,0.887,2.283,2.275,2.283c0.897,0,1.523-0.72,2.129-1.416   c0.154-0.179,0.379-0.436,0.564-0.612c0.025,0.024,0.052,0.049,0.078,0.075c1.074,1.017,2.042,1.859,3.037,1.859   c0.504-0.001,0.949-0.222,1.252-0.623c0.951-1.26-0.064-2.554-0.611-3.249c-0.021-0.026-0.043-0.055-0.066-0.085   c0.959,0.215,2.607,1.877,2.961,3.639c0.289,1.431-0.482,1.934-1.086,2.188c-0.387,0.161-0.619,0.285-0.977,0.478   c-0.223,0.12-0.5,0.27-0.92,0.479c-0.234,0.12-0.629-0.188-0.65-0.301l-0.047-0.268c-0.141-0.859-0.393-1.159-1.225-1.456   c-0.677-0.242-1.477,0.093-2.094,0.41c-0.205,0.104-0.46,0.235-0.581,0.262c-0.148,0.032-0.26,0.032-0.401,0.033   c-0.334,0-0.839,0.002-1.36,0.476c-0.373,0.34-0.555,0.742-0.715,1.098c-0.09,0.199-0.175,0.387-0.289,0.554   c-0.095,0.139-0.266,0.307-0.447,0.484c-0.371,0.363-0.832,0.814-1.061,1.441c-0.322,0.878-0.336,1.966-0.035,2.841   c0.252,0.729,2.029,2.438,2.854,2.609c0.466,0.101,1.031,0.001,1.487-0.093c0.117-0.024,0.234-0.049,0.348-0.068   c0.271-0.046,0.615-0.129,0.928-0.205c0.227-0.056,0.43-0.109,0.539-0.124c0-0.002,0.017,0,0.041,0c0,0.122-0.022,0.34-0.127,0.702   c-0.269,0.938,0.278,2.123,0.941,2.858c-0.236,0.35-0.467,0.843-0.412,1.487c0.088,1.05,0.688,3.713,1.895,4.79   c0.502,0.449,0.998,0.667,1.516,0.667c0.668,0,1.16-0.37,1.555-0.668l0.195-0.146c0.811-0.587,1.373-1.608,1.918-2.596l0.223-0.404   c1.822-3.28,3.48-6.881,1.951-8.718c-0.758-0.912-1.326-2.044-1.645-3.272c-0.082-0.325-0.027-0.55,0.045-0.644   c0.049-0.062,0.066-0.088,0.26-0.014c0.291,0.109,0.563,0.548,0.801,0.934c0.348,0.562,0.742,1.197,1.518,1.256   c0.088,0.007,0.166,0.01,0.236,0.01c0.619,0,0.949-0.26,1.24-0.489c0.125-0.099,0.291-0.23,0.551-0.402   c0.398-0.262,0.787-0.643,1.199-1.045c0.348-0.342,0.998-0.979,1.174-1.039c0.428,0.058,0.428,0.058,0.67,0.511   c0.033,0.076,0.086,0.319,0.123,0.497c0.178,0.839,0.508,2.399,2.033,2.578c1.381,0.157,1.84-1.019,2.115-1.695   c0.18-0.446,0.352-0.868,0.648-1.048c0.121-0.073,0.221-0.13,0.295-0.172c0.018,0.032,0.035,0.07,0.057,0.114   c0.391,0.831,0.619,1.429,0.787,1.864c0.307,0.797,0.549,1.427,1.336,1.689c0.186,0.062,0.373,0.094,0.557,0.094h0.002   c0.518-0.001,0.996-0.247,1.348-0.695c0.65-0.827,0.836-2.347,0.83-3.108c0.504-0.222,1.623-0.723,2.514-1.611   c0.594-0.594,1.24-1.15,1.879-1.679v18.021c0,0.441,0.289,0.83,0.711,0.957c0.42,0.128,0.879-0.037,1.123-0.404   c0.93-1.402,2.486-2.239,4.166-2.239c1.586,0,3.057,0.753,4,2.018V71C91,74.859,87.859,78,84,78z"/><path d="M80.045,69.663c-0.059-0.107-0.086-0.241-0.121-0.409c-0.094-0.446-0.234-1.121-1.033-1.675   c-0.494-0.344-1.01-0.512-1.572-0.512c-0.59,0-1.156,0.192-1.641,0.372c-0.717,0.264-1.311,0.847-1.885,1.411   c-0.32,0.314-0.652,0.64-0.855,0.756c-0.045,0.017-0.188,0.036-0.283,0.049c-0.438,0.059-1.25,0.168-1.701,0.986   c-0.365,0.666-1.467,3.573,0.275,4.58c0.668,0.385,1.682,0.064,2.613-0.312c0.248-0.099,0.586-0.234,0.709-0.257l0.299-0.057   c0.121-0.023,0.209-0.047,0.248-0.048c0.09,0.063,0.262,0.339,0.363,0.503l0.162,0.256c0.018,0.033,0.047,0.14,0.066,0.211   c0.096,0.345,0.273,0.987,0.965,1.283c0.213,0.092,0.445,0.138,0.691,0.138c0.002,0,0.002,0,0.002,0   c0.547,0,1.057-0.23,1.486-0.425l0.154-0.066c0.375-0.158,0.891-0.375,1.344-1.16c0.512-0.891,1.092-2.048,1.021-3.11   c-0.057-0.87-0.551-1.5-0.947-2.007C80.258,69.981,80.117,69.802,80.045,69.663z M78.6,74.29c-0.117,0.201-0.127,0.205-0.387,0.314   l-0.264,0.115c-0.094,0.043-0.236,0.107-0.363,0.155c-0.057-0.195-0.137-0.436-0.291-0.665l-0.135-0.213   c-0.258-0.413-0.576-0.927-1.123-1.213c-0.307-0.161-0.594-0.236-0.9-0.236c-0.184,0-0.387,0.031-0.672,0.087l-0.266,0.05   c-0.326,0.059-0.686,0.203-1.104,0.37c-0.217,0.088-0.566,0.229-0.824,0.306c-0.02-0.428,0.18-1.24,0.396-1.684   c0.07-0.015,0.176-0.029,0.254-0.039c0.281-0.038,0.633-0.086,0.977-0.279c0.455-0.257,0.863-0.657,1.295-1.081   c0.385-0.377,0.863-0.847,1.178-0.963c0.4-0.148,0.715-0.247,0.947-0.247c0.109,0,0.236,0.019,0.432,0.154   c0.141,0.097,0.148,0.113,0.217,0.442c0.051,0.243,0.121,0.577,0.311,0.935c0.156,0.297,0.359,0.556,0.555,0.806   c0.252,0.32,0.51,0.65,0.527,0.904C79.377,72.579,79.26,73.144,78.6,74.29z"/></g><text x="0" y="115" fill="#000000" font-size="5px" font-weight="bold" font-family="'Helvetica Neue', Helvetica, Arial-Unicode, Arial, Sans-serif">Created by Nikita Kozin</text><text x="0" y="120" fill="#000000" font-size="5px" font-weight="bold" font-family="'Helvetica Neue', Helvetica, Arial-Unicode, Arial, Sans-serif">from the Noun Project</text></svg>