<svg xmlns="http://www.w3.org/2000/svg" xmlns:xlink="http://www.w3.org/1999/xlink" version="1.1" x="0px" y="0px" viewBox="0 0 90 112.5" enable-background="new 0 0 90 90" xml:space="preserve"><g><path d="M7.2,83.3c-0.3,0-0.6-0.1-0.9-0.2c-0.8-0.3-1.3-1.1-1.3-1.9V16.1c0-2.9,1.1-5.7,3.2-7.8c2.1-2.2,5-3.4,8-3.4H71   c6.2,0,11.2,5,11.2,11.2v32c0,6.2-5,11.2-11.2,11.2H35.4L8.6,82.8C8.2,83.1,7.7,83.3,7.2,83.3z M16.3,9.2c-1.9,0-3.6,0.8-5,2.1   c-1.3,1.3-2,3-2,4.8v60.4l23.9-20.9c0.4-0.3,0.9-0.5,1.4-0.5H71c3.8,0,6.9-3.1,6.9-6.9v-32c0-3.8-3.1-6.9-6.9-6.9H16.3z"/></g><g><path d="M67.6,27H23.8c-1.2,0-2.1-1-2.1-2.1c0-1.2,1-2.1,2.1-2.1h43.8c1.2,0,2.1,1,2.1,2.1C69.8,26.1,68.8,27,67.6,27z"/></g><g><path d="M54.3,39H23.8c-1.2,0-2.1-1-2.1-2.1s1-2.1,2.1-2.1h30.4c1.2,0,2.1,1,2.1,2.1S55.4,39,54.3,39z"/></g><g><path d="M38.1,82.7c-0.5,0-0.9-0.2-1.3-0.5L28,75.3c-0.5-0.4-0.8-1-0.8-1.7s0.3-1.3,0.8-1.7l8.8-6.9c0.6-0.5,1.5-0.6,2.3-0.2   c0.7,0.4,1.2,1.1,1.2,1.9v13.7c0,0.8-0.5,1.6-1.2,1.9C38.7,82.6,38.4,82.7,38.1,82.7z M32.8,73.7l3.2,2.5v-4.9L32.8,73.7z"/></g><g><path d="M72.2,83.5H47c-1.2,0-2.1-1-2.1-2.1V66.8c0-1.2,1-2.1,2.1-2.1h25.3c5.1,0,9.3,4.2,9.3,9.3v0.3   C81.5,79.3,77.3,83.5,72.2,83.5z M49.1,79.2h23.1c2.8,0,5-2.2,5-5V74c0-2.8-2.2-5-5-5H49.1V79.2z"/></g><text x="0" y="105" fill="#000000" font-size="5px" font-weight="bold" font-family="'Helvetica Neue', Helvetica, Arial-Unicode, Arial, Sans-serif">Created by Sergey Novosyolov</text><text x="0" y="110" fill="#000000" font-size="5px" font-weight="bold" font-family="'Helvetica Neue', Helvetica, Arial-Unicode, Arial, Sans-serif">from the Noun Project</text></svg>