<svg xmlns="http://www.w3.org/2000/svg" data-name="Layer 1" viewBox="0 0 100 125" x="0px" y="0px"><title>Artboard 13</title><path d="M.53,85.48V80.54a1,1,0,0,1,1-1H7.36V36a8.33,8.33,0,0,1,8.33-8.32H36v12H19.38v39.8H39.14a1.94,1.94,0,0,1,1.94,1.94v1.28a2.06,2.06,0,0,0,2.06,2.06H56.86a2.06,2.06,0,0,0,2.06-2.06V81.44a1.94,1.94,0,0,1,1.94-1.94H80.62V39.7H64v-12H84.31A8.33,8.33,0,0,1,92.64,36v43.5h5.79a1,1,0,0,1,1,1v4.94a9.09,9.09,0,0,1-9.08,9.08H9.61A9.09,9.09,0,0,1,.53,85.48ZM42.14,59.59A5.46,5.46,0,0,1,41.46,57V10.22a4.79,4.79,0,0,1,4.79-4.79h7.5a4.79,4.79,0,0,1,4.79,4.79V57a5.46,5.46,0,0,1-.68,2.64L52,70.08a2.34,2.34,0,0,1-2,1.21h0a2.34,2.34,0,0,1-2-1.21ZM45.36,57a1.5,1.5,0,0,0,.36,1l2.71,4.89h3.14l2.87-5.18a1.54,1.54,0,0,0,.19-.74V55.77h0a17.3,17.3,0,0,1-4.48.52c-.43,0-.85,0-1.26,0a.49.49,0,0,1-.46-.5v-44a1.51,1.51,0,0,0-1.81-1.48,1.55,1.55,0,0,0-1.21,1.54Z"/><text x="0" y="115" fill="#000000" font-size="5px" font-weight="bold" font-family="'Helvetica Neue', Helvetica, Arial-Unicode, Arial, Sans-serif">Created by Gregor Cresnar</text><text x="0" y="120" fill="#000000" font-size="5px" font-weight="bold" font-family="'Helvetica Neue', Helvetica, Arial-Unicode, Arial, Sans-serif">from the Noun Project</text></svg>