<svg xmlns:dc="http://purl.org/dc/elements/1.1/" xmlns:cc="http://creativecommons.org/ns#" xmlns:rdf="http://www.w3.org/1999/02/22-rdf-syntax-ns#" xmlns:svg="http://www.w3.org/2000/svg" xmlns="http://www.w3.org/2000/svg" xmlns:sodipodi="http://sodipodi.sourceforge.net/DTD/sodipodi-0.dtd" xmlns:inkscape="http://www.inkscape.org/namespaces/inkscape" version="1.1" x="0px" y="0px" viewBox="0 0 100 125"><g transform="translate(0,-952.36218)"><path style="text-indent:0;text-transform:none;direction:ltr;block-progression:tb;baseline-shift:baseline;color:#000000;enable-background:accumulate;" d="m 9.75,958.36216 c -1.77743,0.01 -3.70833,0.692 -3.75,2.5 l 0,82.96884 c 0.32543,2.1449 2.07313,2.391 3.75,2.5312 l 80.5,0 c 1.7594,-0.037 3.70702,-0.7528 3.75,-2.5312 l 0,-82.96884 c -0.34807,-2.1348 -2.07147,-2.3944 -3.75,-2.5 z m 0.25,4 80,0 0,80.00004 -80,0 z m 8.375,5 c -1.64567,0 -3.33628,0.7676 -3.375,2.375 l 0,65.21884 c 0.30995,1.9715 1.82016,2.2543 3.375,2.4062 l 63.25,0 c 1.64157,-0.03 3.33647,-0.8072 3.375,-2.4062 l 0,-65.21884 c -0.31245,-1.9728 -1.81085,-2.2614 -3.375,-2.375 z m 0.625,4 40.09375,0 11.1875,12.7812 -25.59375,5.7813 c 0.19187,-0.8749 0.3125,-1.7396 0.3125,-2.5625 0,-6.6038 -5.39624,-12 -12,-12 -6.60376,0 -12,5.3962 -12,12 0,3.7155 2.17127,8.0842 4.5,12.0312 l -6.5,5.00004 z m 45.4375,0 16.5625,0 0,10.375 -6.25,1.4062 z m -31.4375,8 c 4.44208,0 8,3.5578 8,8 0,1.7957 -1.80551,6.3685 -3.96875,10.0312 -1.25175,1.9931 -2.44284,3.99904 -4.03125,5.56264 -1.62259,-1.6024 -2.99761,-3.82114 -4.03125,-5.56264 C 26.80551,993.73066 25,989.15786 25,987.36216 c 0,-4.4422 3.55792,-8 8,-8 z m 0,2 c -3.29004,0 -6,2.7099 -6,6 0,3.29 2.70996,6 6,6 3.29004,0 6,-2.71 6,-6 0,-3.2901 -2.70996,-6 -6,-6 z m 0,4 c 1.12828,0 2,0.8717 2,2 0,1.1283 -0.87172,2 -2,2 -1.12828,0 -2,-0.8717 -2,-2 0,-1.1283 0.87172,-2 2,-2 z m 48,0.5 0,44.56254 -35.71875,-36.53134 z m -38.84375,10.5312 14.21875,14.56264 -25.21875,22.4062 -12.15625,0 0,-23.9062 8.6875,-6.6876 c 0.90387,1.3085 1.94114,2.5202 3,3.5626 0.55226,0.4737 1.0228,1.0312 2.3125,1.0312 1.2897,0 1.76024,-0.5574 2.3125,-1.0312 2.08346,-2.0115 3.83353,-4.6791 5.15625,-6.90634 0.5842,-0.9892 1.15316,-2.0061 1.6875,-3.0313 z m 17,17.40634 19.125,19.5625 -14.3125,0 -11.25,-13.8438 z m -9.4375,8.4063 9.0625,11.1562 -21.625,0 z" fill="#000000" fill-opacity="1" stroke="none" marker="none" visibility="visible" display="inline" overflow="visible"/></g><text x="0" y="115" fill="#000000" font-size="5px" font-weight="bold" font-family="'Helvetica Neue', Helvetica, Arial-Unicode, Arial, Sans-serif">Created by art shop</text><text x="0" y="120" fill="#000000" font-size="5px" font-weight="bold" font-family="'Helvetica Neue', Helvetica, Arial-Unicode, Arial, Sans-serif">from the Noun Project</text></svg>