<svg xmlns="http://www.w3.org/2000/svg" xmlns:xlink="http://www.w3.org/1999/xlink" version="1.0" x="0px" y="0px" viewBox="0 0 100 125" enable-background="new 0 0 100 100" xml:space="preserve"><path d="M97.5,5h-95C1.119,5,0,6.119,0,7.5V75c0,1.381,1.119,2.5,2.5,2.5H35v5c0,4.136-3.364,7.5-7.5,7.5  c-1.381,0-2.5,1.119-2.5,2.5s1.119,2.5,2.5,2.5h45c1.381,0,2.5-1.119,2.5-2.5S73.881,90,72.5,90c-4.136,0-7.5-3.364-7.5-7.5v-5h32.5  c1.381,0,2.5-1.119,2.5-2.5V7.5C100,6.119,98.881,5,97.5,5z M37.494,90C39.066,87.909,40,85.312,40,82.5v-5h20v5  c0,2.812,0.934,5.409,2.506,7.5H37.494z M95,72.5H5v-5h90V72.5z M95,62.5H5V10h90V62.5z M53.5,30c0-1.932-1.568-3.5-3.5-3.5  c-1.932,0-3.5,1.568-3.5,3.5s1.568,3.5,3.5,3.5C51.932,33.5,53.5,31.932,53.5,30z M40.001,53.75c0,1.947,1.212,3.75,10,3.75  c8.788,0,10-1.803,10-3.75c0-1.671-0.907-3.231-6.709-3.642C56.263,46.687,62.5,38.493,62.5,30c0-6.659-5.841-12.5-12.5-12.5  c-6.659,0-12.5,5.841-12.5,12.5c0,8.493,6.237,16.688,9.208,20.108C40.908,50.52,40.001,52.08,40.001,53.75z M42.5,30  c0-3.469,3.276-7.5,7.5-7.5c4.224,0,7.5,4.031,7.5,7.5c0,6.393-4.813,13.04-7.503,16.256C47.307,43.047,42.5,36.414,42.5,30z"/><text x="0" y="115" fill="#000000" font-size="5px" font-weight="bold" font-family="'Helvetica Neue', Helvetica, Arial-Unicode, Arial, Sans-serif">Created by Yorlmar Campos</text><text x="0" y="120" fill="#000000" font-size="5px" font-weight="bold" font-family="'Helvetica Neue', Helvetica, Arial-Unicode, Arial, Sans-serif">from the Noun Project</text></svg>