<svg xmlns="http://www.w3.org/2000/svg" data-name="Layer 3" viewBox="0 0 360 360" x="0px" y="0px"><title>great_streets_icons_outlined</title><path d="M96.36,157.85a20.78,20.78,0,0,0-32.77,1.26L46.19,108.5c0-.11-0.08-0.23-0.13-0.34A20,20,0,0,0,9.37,123.84l30.17,102.6a4.5,4.5,0,0,0,1.14,1.91l60,60v60.44a4.5,4.5,0,0,0,9,0v-62.3a4.5,4.5,0,0,0-1.32-3.18l-60.5-60.5L17.93,121a4.63,4.63,0,0,0-.19-0.53,11,11,0,0,1,20-8.91l23,66.78a4.48,4.48,0,0,0,.49,1,20.76,20.76,0,0,0,3.32,5.45l37.71,44.75a4.5,4.5,0,1,0,6.88-5.8L71.39,179a11.86,11.86,0,0,1,18.13-15.31l0.07,0.08,49.61,55.93c0.23,0.26,23.26,26.27,23.26,66.76v62.3a4.5,4.5,0,0,0,9,0v-62.3c0-44.1-24.55-71.65-25.56-72.77Z"></path><path d="M340.68,97.85a20,20,0,0,0-26.26,10.31c0,0.11-.09.22-0.13,0.34l-17.4,50.61a20.87,20.87,0,0,0-32.77-1.26l-49.52,55.82c-1,1.15-25.59,28.71-25.59,72.8v62.3a4.5,4.5,0,0,0,9,0v-62.3c0-40.49,23-66.5,23.29-66.79l49.58-55.89,0.07-.08A11.86,11.86,0,0,1,289.08,179l-37.71,44.75a4.5,4.5,0,1,0,6.88,5.8L296,184.82a20.78,20.78,0,0,0,3.31-5.44,4.47,4.47,0,0,0,.5-1l23-66.78a11,11,0,0,1,20,8.91,4.63,4.63,0,0,0-.19.53L312.62,222.8l-60.5,60.5a4.5,4.5,0,0,0-1.32,3.18v62.3a4.5,4.5,0,0,0,9,0V288.34l60-60a4.49,4.49,0,0,0,1.14-1.91l30.17-102.6A20,20,0,0,0,340.68,97.85Z"></path><path d="M130.41,57.22l19-19,29.53,29.53a4.5,4.5,0,1,0,6.36-6.36L152.55,28.71l-0.07-.06a4.49,4.49,0,0,0-.55-0.45l-0.14-.1a4.48,4.48,0,0,0-.67-0.35l-0.18-.07-0.29-.11L114.56,16.84a4.5,4.5,0,0,0-5.6,5.6L119.73,58.5c0,0.1.07,0.19,0.1,0.28L119.91,59a4.48,4.48,0,0,0,.35.67l0.1,0.14a4.49,4.49,0,0,0,.45.55l0.06,0.07,32,32A4.5,4.5,0,1,0,159.18,86Zm10.44-23.17L126.2,48.7,120,27.84Z"></path><path d="M249.38,131a17.72,17.72,0,0,0-5.2-10.63l-7.48-7.48a4.49,4.49,0,0,0-.65-0.53,4.5,4.5,0,0,0-.53-0.64l-24-24a4.5,4.5,0,0,0-6.36,6.36L226,114.88l-19,19-20.6-20.6a4.5,4.5,0,1,0-6.36,6.36l23.78,23.78a4.19,4.19,0,0,1,1.17,1.17L212.5,152a17.44,17.44,0,0,0,12.19,5.27,13,13,0,0,0,9.35-3.72l11.7-11.7A13.36,13.36,0,0,0,249.38,131Zm-10,4.54-11.7,11.7c-1.93,1.93-6.05,1.21-8.81-1.55l-5.47-5.47,19-19,5.47,5.47a8.83,8.83,0,0,1,2.61,5.18A4.5,4.5,0,0,1,239.37,135.52Z"></path><path d="M254.45,42.78L229.63,18a4.5,4.5,0,0,0-6.36,0L112.65,128.58a4.5,4.5,0,0,0,0,6.36l24.82,24.82a4.5,4.5,0,0,0,6.36,0L254.45,49.15A4.5,4.5,0,0,0,254.45,42.78ZM140.65,150.22L122.2,131.77l9.21-9.21,7.4,7.4a4.5,4.5,0,0,0,6.36-6.36l-7.4-7.4,6.79-6.79,7.4,7.4a4.5,4.5,0,1,0,6.36-6.36l-7.4-7.4,6.91-6.91,7.4,7.4a4.5,4.5,0,0,0,6.36-6.36l-7.4-7.4,8.38-8.38,7.4,7.4a4.5,4.5,0,1,0,6.36-6.36l-7.4-7.4,7.25-7.25,7.4,7.4A4.5,4.5,0,0,0,200,68.81l-7.4-7.4,6.57-6.57,7.4,7.4a4.5,4.5,0,0,0,6.36-6.36l-7.4-7.4,6.06-6.06,7.4,7.4a4.5,4.5,0,1,0,6.36-6.36l-7.4-7.4,8.54-8.54L244.9,46Z"></path></svg>