<svg xmlns="http://www.w3.org/2000/svg" data-name="Layer 1" viewBox="0 0 100 125" x="0px" y="0px"><title>Artboard 3</title><path d="M81.84,56.47A1.94,1.94,0,1,1,84,58.2h-.24A1.94,1.94,0,0,1,81.84,56.47ZM65.55,90a1.93,1.93,0,0,0-2.55-1h0a1.94,1.94,0,1,0,2.56,1ZM49.94,95.67h0A1.94,1.94,0,1,0,48,93.73,1.93,1.93,0,0,0,50,95.67ZM79.39,44.79a1.9,1.9,0,0,0,1-.26,1.93,1.93,0,1,0-1,.26ZM37.93,91.59a1.94,1.94,0,1,0-2.56,1,1.88,1.88,0,0,0,.75.17A1.94,1.94,0,0,0,37.93,91.59ZM16,58.16h.18a1.94,1.94,0,0,0,2-1.73v0s0,0,0,0A1.94,1.94,0,0,0,14.31,56h0v0a.05.05,0,0,0,0,0A1.94,1.94,0,0,0,16,58.16Zm3.62-13.73a2,2,0,0,0,.94.26,1.94,1.94,0,1,0-.94-.26ZM68.85,33.91a1.94,1.94,0,0,0,2.71-.42,1.94,1.94,0,1,0-2.71.42Zm-38.79.31a1.94,1.94,0,1,0-1.54-.8A1.94,1.94,0,0,0,30.06,34.22Zm3.26,26.7A16.68,16.68,0,1,1,50,77.6,16.7,16.7,0,0,1,33.32,60.92Zm8.15.56,3.12,3.14,3.24,3.26,3.26-3.24,7.46-7.42L55.3,54l-7.46,7.42-3.12-3.14ZM63.91,29.1a2.75,2.75,0,0,0-1-2.13,45,45,0,0,0-8.14-5.23.25.25,0,0,1-.14-.23V18.88a6.34,6.34,0,0,0,.79-2.16c.3,0,.7-.45,1.13-2,.57-2,0-2.35-.51-2.33,1.28-5.86-2-5.88-2-5.88a3.32,3.32,0,0,0-3.65-2.17,22.25,22.25,0,0,1-5,0A1.58,1.58,0,0,0,46,5.54c-2.94,1.8-2.27,5.75-2,6.89-.5,0-1,.38-.47,2.33.43,1.51.83,1.94,1.13,2a6.34,6.34,0,0,0,.79,2.16v2.64a.25.25,0,0,1-.14.23A45,45,0,0,0,37.11,27a2.75,2.75,0,0,0-1,2.13V33H63.91ZM88.41,79.77a.25.25,0,0,1-.14-.23V76.9a6.34,6.34,0,0,0,.79-2.16c.3,0,.7-.45,1.13-2,.57-2,0-2.35-.51-2.33,1.28-5.86-2-5.88-2-5.88A3.32,3.32,0,0,0,84,62.4a22.25,22.25,0,0,1-5,0,1.58,1.58,0,0,0,.56,1.2c-2.94,1.8-2.27,5.75-2,6.89-.5,0-1,.38-.47,2.33.43,1.51.83,1.94,1.13,2A6.34,6.34,0,0,0,79,76.9v2.64a.25.25,0,0,1-.14.23A45,45,0,0,0,70.76,85a2.75,2.75,0,0,0-1,2.13V91H97.55V87.12a2.75,2.75,0,0,0-1-2.13A45,45,0,0,0,88.41,79.77ZM30.23,87.12a2.75,2.75,0,0,0-1-2.13,45,45,0,0,0-8.14-5.23.25.25,0,0,1-.14-.23V76.9a6.34,6.34,0,0,0,.79-2.16c.3,0,.7-.45,1.13-2,.57-2,0-2.35-.51-2.33,1.28-5.86-2-5.88-2-5.88A3.32,3.32,0,0,0,16.7,62.4a22.25,22.25,0,0,1-5,0,1.58,1.58,0,0,0,.56,1.2c-2.94,1.8-2.27,5.75-2,6.89-.5,0-1,.38-.47,2.33.43,1.51.83,1.94,1.13,2a6.34,6.34,0,0,0,.79,2.16v2.64a.25.25,0,0,1-.14.23A45,45,0,0,0,3.44,85a2.75,2.75,0,0,0-1,2.13V91H30.23Z"/><text x="0" y="115" fill="#000000" font-size="5px" font-weight="bold" font-family="'Helvetica Neue', Helvetica, Arial-Unicode, Arial, Sans-serif">Created by Gregor Cresnar</text><text x="0" y="120" fill="#000000" font-size="5px" font-weight="bold" font-family="'Helvetica Neue', Helvetica, Arial-Unicode, Arial, Sans-serif">from the Noun Project</text></svg>