<svg xmlns="http://www.w3.org/2000/svg" xmlns:xlink="http://www.w3.org/1999/xlink" version="1.1" x="0px" y="0px" viewBox="0 0 100 125" enable-background="new 0 0 100 100" xml:space="preserve"><g display="none"><path display="inline" fill="none" stroke="#000000" stroke-width="3" stroke-linejoin="round" stroke-miterlimit="10" d="M65,93   H36v-5.4c4.7,0,8.5-6.1,8.5-13.6h11.9c0,7.5,3.8,13.6,8.5,13.6V93z"/><path display="inline" fill="none" stroke="#000000" stroke-width="3" stroke-linejoin="round" stroke-miterlimit="10" d="M7,27.1   v47.8c0,2.3,1.8,4.1,4.1,4.1h77.8c2.3,0,4.1-1.8,4.1-4.1V27.1c0-2.3-1.8-4.1-4.1-4.1H11.1C8.8,23,7,24.8,7,27.1z"/><g display="inline"><g><path fill="none" stroke="#000000" stroke-width="3" stroke-linejoin="round" stroke-miterlimit="10" d="M66.8,6.5     c-9.4,0-17,7.6-17,16.9c0,1.2,0.1,2.5,0.4,3.6c0.5,2.3,1.5,4.4,2.8,6.2l12.2,15.5c0.8,1.1,2.4,1.1,3.3,0l12.2-15.5     c1.3-1.8,2.3-3.9,2.8-6.2c0.3-1.2,0.4-2.4,0.4-3.6C83.8,14,76.1,6.5,66.8,6.5z M66.8,30c-4,0-7.3-3.2-7.3-7.3     c0-4,3.3-7.3,7.3-7.3s7.3,3.2,7.3,7.3C74,26.8,70.8,30,66.8,30z"/></g></g><rect x="13" y="29" display="inline" fill="none" stroke="#000000" stroke-width="3" stroke-linejoin="round" stroke-miterlimit="10" width="74" height="44"/></g><g><path d="M88.9,21.5h-3.8C84.2,12.2,76.3,5,66.8,5s-17.5,7.3-18.4,16.5H11.1c-3.1,0-5.6,2.5-5.6,5.6v47.8c0,3.1,2.5,5.6,5.6,5.6   h30.8c-1.3,3.3-3.5,5.6-5.9,5.6c-0.8,0-1.5,0.7-1.5,1.5V93c0,0.8,0.7,1.5,1.5,1.5h29c0.8,0,1.5-0.7,1.5-1.5v-5.4   c0-0.8-0.7-1.5-1.5-1.5c-2.4,0-4.6-2.2-5.9-5.6h29.8c3.1,0,5.6-2.5,5.6-5.6V27.1C94.5,24,92,21.5,88.9,21.5z M51.4,21.5   C52.3,13.9,58.8,8,66.8,8s14.4,5.9,15.4,13.5c0.1,0.6,0.1,1.2,0.1,1.9c0,0.4,0,0.7-0.1,1.1c-0.1,0.7-0.1,1.5-0.3,2.2   c-0.1,0.3-0.1,0.5-0.2,0.8c-0.3,1-0.7,2.1-1.2,3c-0.3,0.6-0.7,1.2-1.1,1.8L67.2,47.7c-0.2,0.2-0.4,0.2-0.5,0.2s-0.3,0-0.5-0.2   L54.1,32.3c-0.4-0.6-0.8-1.2-1.1-1.8c-0.5-1-0.9-2-1.2-3c-0.1-0.3-0.2-0.5-0.2-0.8c-0.2-0.7-0.2-1.5-0.3-2.2c0-0.4-0.1-0.7-0.1-1.1   C51.2,22.7,51.3,22.1,51.4,21.5z M51.7,34.1l12.2,15.5c0.7,0.9,1.7,1.4,2.8,1.4s2.1-0.5,2.8-1.4l12.3-15.5c0.8-1.1,1.5-2.3,2-3.6   h1.7v41h-71v-41h35.2C50.2,31.8,50.9,33,51.7,34.1z M63.5,88.9v2.6h-26v-2.6c3.4-0.7,6.2-3.9,7.6-8.4h10.8   C57.3,85,60.1,88.2,63.5,88.9z M91.5,74.9c0,1.4-1.2,2.6-2.6,2.6H11.1c-1.4,0-2.6-1.2-2.6-2.6V27.1c0-1.4,1.2-2.6,2.6-2.6h37.2   c0.1,0.9,0.2,1.9,0.4,2.8c0,0.1,0,0.1,0,0.2H13c-0.8,0-1.5,0.7-1.5,1.5v44c0,0.8,0.7,1.5,1.5,1.5h74c0.8,0,1.5-0.7,1.5-1.5V29   c0-0.8-0.7-1.5-1.5-1.5h-2.2c0-0.1,0-0.1,0-0.2c0.2-0.9,0.3-1.9,0.4-2.8h3.7c1.4,0,2.6,1.2,2.6,2.6V74.9z"/><path d="M59.4,27.5c0.8,1.3,1.9,2.3,3.3,3c1.2,0.7,2.6,1,4.1,1s2.9-0.4,4.1-1c1.3-0.7,2.4-1.7,3.3-3c0.6-0.9,1-1.9,1.2-3   c0.1-0.6,0.2-1.1,0.2-1.7c0-0.4,0-0.9-0.1-1.3c-0.6-4.2-4.3-7.5-8.7-7.5s-8.1,3.3-8.7,7.5C58,21.9,58,22.3,58,22.8   c0,0.6,0.1,1.2,0.2,1.7C58.4,25.6,58.8,26.6,59.4,27.5z M61.1,21.5c0.6-2.6,2.9-4.5,5.6-4.5s5.1,1.9,5.6,4.5   c0.1,0.4,0.1,0.8,0.1,1.3c0,0.6-0.1,1.2-0.3,1.7c-0.4,1.2-1.2,2.3-2.2,3c-0.9,0.6-2.1,1-3.3,1s-2.4-0.4-3.3-1c-1-0.7-1.8-1.8-2.2-3   C61.1,24,61,23.4,61,22.8C61,22.3,61,21.9,61.1,21.5z"/></g><text x="0" y="115" fill="#000000" font-size="5px" font-weight="bold" font-family="'Helvetica Neue', Helvetica, Arial-Unicode, Arial, Sans-serif">Created by Eugene Reznik</text><text x="0" y="120" fill="#000000" font-size="5px" font-weight="bold" font-family="'Helvetica Neue', Helvetica, Arial-Unicode, Arial, Sans-serif">from the Noun Project</text></svg>