<svg xmlns="http://www.w3.org/2000/svg" xmlns:xlink="http://www.w3.org/1999/xlink" version="1.1" x="0px" y="0px" viewBox="0 0 32 40" enable-background="new 0 0 32 32" xml:space="preserve"><g display="none"><rect x="-8.73" y="-7.333" display="inline" fill="#000000" width="412.397" height="207"/></g><g><g><rect x="12.167" y="14.855" width="1" height="2.228"/><rect x="12.167" y="10.892" width="1" height="2.228"/><path d="M6,9.387V26l6.667-4.156L19.333,26L26,21.998V6l-3.636,2.35c-0.792-0.715-1.831-1.162-2.982-1.162    c-1.173,0-2.231,0.462-3.029,1.201L12.648,6L6,9.387z M25,21.432l-5.117,3.072v-1.728h-1v1.765l-5.687-3.545l-0.028-0.018v-2.16    h-1v2.159l-0.03,0.019L7,24.198V10l5.167-2.633v1.789h1V7.525l2.518,1.623c-0.487,0.716-0.772,1.579-0.772,2.51    c0,0.414,0.057,0.814,0.162,1.195c0.042,0.152,0.092,0.301,0.149,0.447l0.135,0.308l4.022,7.433l4.028-7.443l0.122-0.278    c0.061-0.152,0.113-0.307,0.157-0.467c0.105-0.38,0.162-0.781,0.162-1.195c0-0.952-0.302-1.83-0.809-2.555L25,7.837V21.432z     M19.383,8.188c1.913,0,3.469,1.556,3.469,3.469c0,0.315-0.042,0.627-0.126,0.928c-0.034,0.123-0.075,0.244-0.109,0.331    l-0.106,0.24l-3.129,5.782l-3.124-5.773l-0.104-0.234c-0.044-0.113-0.083-0.228-0.116-0.346c-0.083-0.301-0.126-0.613-0.126-0.928    C15.914,9.745,17.47,8.188,19.383,8.188z"/><path d="M19.383,13.594c1.092,0,1.977-0.885,1.977-1.977S20.475,9.64,19.383,9.64s-1.977,0.885-1.977,1.977    S18.291,13.594,19.383,13.594z M19.383,10.64c0.539,0,0.977,0.438,0.977,0.977s-0.438,0.977-0.977,0.977s-0.977-0.438-0.977-0.977    S18.844,10.64,19.383,10.64z"/><polygon points="1,1 8,1 8,0 0,0 0,7.885 1,7.885   "/><polygon points="24,32 32,32 32,24.115 31,24.115 31,31 24,31   "/></g></g><g display="none"><g display="inline"><path d="M6,9.387V26l6.667-4.156L19.333,26L26,21.998V6l-4.563,2.949c-0.817-1.064-2.088-1.761-3.533-1.761    c-0.866,0-1.667,0.257-2.352,0.684L12.648,6L6,9.387z M24,9.674v11.191l-4.647,2.79l-5.628-3.509l-1.058-0.66l-1.058,0.66    L8,22.396V10.613l4.531-2.308l1.579,1.018c-0.42,0.681-0.675,1.476-0.675,2.336c0,0.414,0.057,0.814,0.162,1.195    c0.042,0.152,0.092,0.301,0.149,0.447l0.135,0.308l4.022,7.433l4.028-7.443l0.122-0.278c0.061-0.152,0.113-0.307,0.157-0.467    c0.105-0.38,0.162-0.781,0.162-1.195c0-0.3-0.032-0.591-0.088-0.875L24,9.674z M19.362,10.291L19.362,10.291    c0.08,0.088,0.152,0.182,0.216,0.283c0,0.001,0.001,0.001,0.001,0.002c0.062,0.098,0.116,0.203,0.16,0.312    c0.011,0.028,0.017,0.059,0.027,0.087c0.03,0.085,0.059,0.171,0.077,0.26c0.024,0.124,0.038,0.251,0.038,0.381    c0,0.151-0.019,0.297-0.052,0.437c-0.002,0.007-0.005,0.014-0.007,0.022c-0.034,0.135-0.08,0.265-0.139,0.389    c-0.318,0.666-0.992,1.13-1.78,1.13c-1.092,0-1.977-0.885-1.977-1.977c0-0.349,0.098-0.673,0.258-0.958l0,0    c0.166-0.297,0.406-0.546,0.693-0.725c0.017-0.01,0.035-0.019,0.053-0.029c0.117-0.068,0.244-0.121,0.375-0.164    c0.037-0.012,0.074-0.025,0.113-0.035c0.156-0.04,0.318-0.068,0.487-0.068c0.175,0,0.341,0.03,0.502,0.072l0,0    C18.78,9.811,19.109,10.013,19.362,10.291z"/><polygon points="2,2 8.5,2 8.5,0 0,0 0,8.385 2,8.385   "/><polygon points="23.5,32 32,32 32,23.615 30,23.615 30,30 23.5,30   "/></g></g><g display="none"><g display="inline"><rect x="12.417" y="14.855" width="0.5" height="2.228"/><rect x="12.417" y="10.892" width="0.5" height="2.228"/><path d="M6,9.387V26l6.667-4.156L19.333,26L26,21.998V6l-3.636,2.35c-0.792-0.715-1.831-1.162-2.982-1.162    c-1.173,0-2.231,0.462-3.029,1.201L12.648,6L6,9.387z M25.5,21.715l-5.867,3.522v-2.462h-0.5v2.51l-6.202-3.866l-0.014-0.009    v-2.593h-0.5v2.592l-0.015,0.01L6.5,25.099V9.693l5.917-3.015v2.478h0.5V6.769l3.089,1.991c-0.672,0.782-1.093,1.786-1.093,2.898    c0,0.414,0.057,0.814,0.162,1.195c0.042,0.152,0.092,0.301,0.149,0.447l0.135,0.308l4.022,7.433l4.028-7.443l0.122-0.278    c0.061-0.152,0.113-0.307,0.157-0.467c0.105-0.38,0.162-0.781,0.162-1.195c0-1.133-0.435-2.155-1.13-2.943L25.5,6.919V21.715z     M19.383,7.688c2.189,0,3.969,1.781,3.969,3.969c0,0.36-0.048,0.717-0.144,1.061c-0.039,0.141-0.086,0.279-0.133,0.399    l-0.104,0.241l-3.588,6.631l-3.565-6.584l-0.128-0.29c-0.051-0.129-0.095-0.261-0.133-0.396c-0.095-0.344-0.144-0.702-0.144-1.061    C15.414,9.469,17.194,7.688,19.383,7.688z"/><path d="M19.383,13.594c1.092,0,1.977-0.885,1.977-1.977S20.475,9.64,19.383,9.64s-1.977,0.885-1.977,1.977    S18.291,13.594,19.383,13.594z M19.383,10.14c0.815,0,1.477,0.663,1.477,1.477s-0.663,1.477-1.477,1.477s-1.477-0.663-1.477-1.477    S18.568,10.14,19.383,10.14z"/><polygon points="0.75,0.75 8,0.75 8,0.25 0.25,0.25 0.25,7.885 0.75,7.885   "/><polygon points="24,31.75 31.75,31.75 31.75,24.115 31.25,24.115 31.25,31.25 24,31.25   "/></g></g><text x="0" y="47" fill="#000000" font-size="5px" font-weight="bold" font-family="'Helvetica Neue', Helvetica, Arial-Unicode, Arial, Sans-serif">Created by AlfredoCreates.com</text><text x="0" y="52" fill="#000000" font-size="5px" font-weight="bold" font-family="'Helvetica Neue', Helvetica, Arial-Unicode, Arial, Sans-serif">from the Noun Project</text></svg>