<svg xmlns="http://www.w3.org/2000/svg" viewBox="0 0 68 65" x="0px" y="0px"><path fill="#000000" d="M588,472 C588,470.895431 588.895431,470 590,470 C591.104569,470 592,470.895431 592,472 L592,474 C592,475.104569 591.104569,476 590,476 L538,476 C536.895431,476 536,475.104569 536,474 L536,426 C536,424.895431 536.895431,424 538,424 L590,424 C591.104569,424 592,424.895431 592,426 L592,440 C592,441.104569 591.104569,442 590,442 C588.895431,442 588,441.104569 588,440 L540,440 L540,472 L588,472 Z M540,436 L588,436 L588,428 L540,428 L540,436 Z M545,434 C543.895431,434 543,433.104569 543,432 C543,430.895431 543.895431,430 545,430 C546.104569,430 547,430.895431 547,432 C547,433.104569 546.104569,434 545,434 Z M552,434 C550.895431,434 550,433.104569 550,432 C550,430.895431 550.895431,430 552,430 C553.104569,430 554,430.895431 554,432 C554,433.104569 553.104569,434 552,434 Z M559,434 C557.895431,434 557,433.104569 557,432 C557,430.895431 557.895431,430 559,430 C560.104569,430 561,430.895431 561,432 C561,433.104569 560.104569,434 559,434 Z M590,447.223016 L590,446 C590,444.895431 590.895431,444 592,444 C593.104569,444 594,444.895431 594,446 L594,447.223016 C597.364755,447.98652 600.01348,450.635245 600.776984,454 L602,454 C603.104569,454 604,454.895431 604,456 C604,457.104569 603.104569,458 602,458 L600.776984,458 C600.01348,461.364755 597.364755,464.01348 594,464.776984 L594,466 C594,467.104569 593.104569,468 592,468 C590.895431,468 590,467.104569 590,466 L590,464.776984 C586.635245,464.01348 583.98652,461.364755 583.223016,458 L582,458 C580.895431,458 580,457.104569 580,456 C580,454.895431 580.895431,454 582,454 L583.223016,454 C583.98652,450.635245 586.635245,447.98652 590,447.223016 L590,447.223016 Z M592,461 C594.761424,461 597,458.761424 597,456 C597,453.238576 594.761424,451 592,451 C589.238576,451 587,453.238576 587,456 C587,458.761424 589.238576,461 592,461 Z M592,458 C590.895431,458 590,457.104569 590,456 C590,454.895431 590.895431,454 592,454 C593.104569,454 594,454.895431 594,456 C594,457.104569 593.104569,458 592,458 Z" transform="translate(-536 -424)"/><text x="0" y="67" fill="#000000" font-size="5px" font-weight="bold" font-family="'Helvetica Neue', Helvetica, Arial-Unicode, Arial, Sans-serif">Created by Andrejs Kirma</text><text x="0" y="72" fill="#000000" font-size="5px" font-weight="bold" font-family="'Helvetica Neue', Helvetica, Arial-Unicode, Arial, Sans-serif">from the Noun Project</text></svg>