<svg xmlns="http://www.w3.org/2000/svg" xmlns:xlink="http://www.w3.org/1999/xlink" version="1.1" x="0px" y="0px" viewBox="0 0 100 125" enable-background="new 0 0 100 100" xml:space="preserve"><path d="M74.031,52.237c-5.351,0-9.703,4.354-9.703,9.705c0,7.915,8.728,14.624,9.099,14.906c0.179,0.136,0.392,0.203,0.604,0.203  c0.221,0,0.441-0.073,0.623-0.218c0.371-0.296,9.082-7.325,9.082-14.892C83.736,56.591,79.383,52.237,74.031,52.237z M74.018,74.75  c-1.927-1.637-7.689-7.018-7.689-12.808c0-4.249,3.456-7.705,7.703-7.705c4.249,0,7.705,3.456,7.705,7.705  C81.736,67.477,75.939,73.054,74.018,74.75z M74.031,57.979c-2.184,0-3.961,1.777-3.961,3.963c0,2.184,1.777,3.961,3.961,3.961  s3.961-1.777,3.961-3.961C77.992,59.757,76.215,57.979,74.031,57.979z M74.031,63.903c-1.081,0-1.961-0.88-1.961-1.961  c0-1.082,0.88-1.963,1.961-1.963s1.961,0.881,1.961,1.963C75.992,63.023,75.112,63.903,74.031,63.903z M81.595,44.3  c-1.22-0.491-2.477-0.856-3.761-1.1V20.013c0-1.866-1.519-3.385-3.385-3.385H14.906c-1.867,0-3.386,1.519-3.386,3.385V62.79  c0,0.495,0.113,0.962,0.305,1.387H6.702c-0.295,0-0.576,0.131-0.766,0.357s-0.27,0.525-0.219,0.816l1.193,6.771  c0.084,0.478,0.5,0.826,0.985,0.826h48.437c3.467,6.21,10.098,10.424,17.701,10.424c11.175,0,20.266-9.09,20.266-20.264  C94.299,54.787,89.312,47.404,81.595,44.3z M13.52,20.013c0-0.764,0.622-1.385,1.386-1.385h59.543c0.764,0,1.385,0.621,1.385,1.385  v22.915c-0.596-0.052-1.196-0.085-1.801-0.085c-10.211,0-18.856,7.63-20.109,17.748c-0.104,0.832-0.156,1.68-0.156,2.518  c0,0.36,0.035,0.712,0.054,1.068H14.906c-0.764,0-1.386-0.622-1.386-1.387V20.013z M8.734,70.948l-0.841-4.771h46.132  c0.254,1.663,0.688,3.267,1.322,4.771H8.734z M74.033,81.372c-10.071,0-18.266-8.193-18.266-18.264c0-0.756,0.048-1.52,0.141-2.271  c1.13-9.118,8.922-15.994,18.125-15.994c2.359,0,4.652,0.441,6.814,1.313c6.956,2.798,11.451,9.452,11.451,16.953  C92.299,73.179,84.104,81.372,74.033,81.372z M50.928,67.562h-12.5c-0.552,0-1,0.447-1,1s0.448,1,1,1h12.5c0.553,0,1-0.447,1-1  S51.48,67.562,50.928,67.562z M16.133,33.38c0.256,0,0.512-0.098,0.707-0.293l10.843-10.844c0.391-0.391,0.391-1.023,0-1.414  s-1.023-0.391-1.414,0L15.426,31.673c-0.391,0.391-0.391,1.023,0,1.414C15.622,33.282,15.877,33.38,16.133,33.38z M44.676,23.321  c0.821,0,1.489-0.667,1.489-1.488c0-0.822-0.668-1.49-1.489-1.49s-1.489,0.668-1.489,1.49  C43.187,22.654,43.855,23.321,44.676,23.321z M44.676,21.321c0.282,0,0.511,0.229,0.511,0.512c0,0.281-0.229,0.51-0.511,0.51  s-0.511-0.229-0.511-0.51C44.166,21.551,44.395,21.321,44.676,21.321z M16.31,28.019c0.256,0,0.512-0.098,0.707-0.293l5.185-5.186  c0.391-0.391,0.391-1.024,0-1.414c-0.391-0.391-1.023-0.391-1.414,0l-5.185,5.186c-0.391,0.391-0.391,1.024,0,1.414  C15.798,27.921,16.054,28.019,16.31,28.019z"/><text x="0" y="115" fill="#000000" font-size="5px" font-weight="bold" font-family="'Helvetica Neue', Helvetica, Arial-Unicode, Arial, Sans-serif">Created by IconDots</text><text x="0" y="120" fill="#000000" font-size="5px" font-weight="bold" font-family="'Helvetica Neue', Helvetica, Arial-Unicode, Arial, Sans-serif">from the Noun Project</text></svg>